# xmcd
#
# Track frame offsets:
#	150
#	4800
#	12054
#	19388
#	25427
#	30359
#	40801
#	56053
#	62383
#	69225
#	71417
#	81810
#	86583
#	93010
#	99312
#	101863
#	107876
#	115763
#	119846
#	132044
#	142061
#
# Disc length: 1938 seconds
#
# Revision: 0
# Processed by: cddbd v1.5.1PL0 Copyright (c) Steve Scherf et al.
# Submitted via: audiograbber 1.80
#
DISCID=11079015
DTITLE=Wordz - The Art Of Slap Boxing 04
DYEAR=1900
DGENRE=
TTITLE0=Intro
TTITLE1=I'm the One
TTITLE2=The Beginning
TTITLE3=Above Average
TTITLE4=Still Got It On Lock
TTITLE5=Listen Close
TTITLE6=Weekend
TTITLE7=No Recovery
TTITLE8=Promoters
TTITLE9=Interlude
TTITLE10=Welcome To America
TTITLE11=The Real
TTITLE12=Instrumental
TTITLE13=The Mic Extremist
TTITLE14=A Word
TTITLE15=Black Keys and Ivory
TTITLE16=The Beginning (Pt.2)
TTITLE17=Let's Get Started
TTITLE18=My Turn To Shine
TTITLE19=The Last Word
TTITLE20=Bonus
EXTD=
EXTT0=
EXTT1=
EXTT2=
EXTT3=
EXTT4=
EXTT5=
EXTT6=
EXTT7=
EXTT8=
EXTT9=
EXTT10=
EXTT11=
EXTT12=
EXTT13=
EXTT14=
EXTT15=
EXTT16=
EXTT17=
EXTT18=
EXTT19=
EXTT20=
PLAYORDER=
